<?xml version="1.0" encoding="UTF-8"?>
<svg id="Layer_1" data-name="Layer 1" xmlns="http://www.w3.org/2000/svg" viewBox="0 0 222.028 51.111">
  <defs>
    <style>
      .cls-1 {
        fill: #fff;
      }

      .cls-2 {
        fill: #3f0000;
      }

      .cls-3 {
        fill: #f03127;
      }

      .cls-4 {
        fill: #ad0000;
      }
    </style>
  </defs>
  <rect class="cls-2" x="85.458" y="-85.458" width="51.111" height="222.028" rx="14" ry="14" transform="translate(136.57 -85.458) rotate(90)"/>
  <rect class="cls-4" x="4.416" y="4" width="213.196" height="43.112" rx="10" ry="10"/>
  <rect class="cls-3" x="8.132" y="6.998" width="205.517" height="36.361" rx="10" ry="10"/>
  <rect class="cls-2" x="12.021" y="8.94" width="198.078" height="32.329" rx="10" ry="10"/>
  <rect class="cls-4" x="14.307" y="10.929" width="193.624" height="28.06" rx="10" ry="10"/>
  <g>
    <path class="cls-2" d="M50.381,34.67c-2.705,0-5.046-.97-6.958-2.883-1.911-1.909-2.881-4.251-2.881-6.957s.969-5.045,2.881-6.956c1.911-1.913,4.252-2.883,6.957-2.883s5.045.97,6.958,2.883c1.912,1.912,2.881,4.252,2.881,6.956s-.97,5.047-2.882,6.958c-1.912,1.912-4.252,2.882-6.957,2.882ZM50.381,22.574c-.638,0-1.13.205-1.594.664-.457.453-.661.944-.661,1.592s.204,1.14.662,1.594c.462.459.954.663,1.593.663.651,0,1.144-.203,1.599-.657.454-.455.657-.949.657-1.6s-.203-1.144-.659-1.6c-.454-.453-.947-.656-1.597-.656Z"/>
    <path class="cls-1" d="M58.22,24.831c0,2.165-.766,4.014-2.296,5.543-1.531,1.531-3.378,2.297-5.544,2.297s-4.013-.766-5.543-2.297c-1.531-1.529-2.296-3.377-2.296-5.543s.765-4.012,2.296-5.543c1.53-1.531,3.377-2.297,5.543-2.297s4.013.766,5.544,2.297c1.53,1.531,2.296,3.377,2.296,5.543ZM54.637,24.831c0-1.179-.415-2.184-1.243-3.013-.829-.827-1.834-1.243-3.013-1.243-1.165,0-2.165.416-3.001,1.243-.837.829-1.254,1.834-1.254,3.013s.417,2.184,1.254,3.013c.836.829,1.836,1.243,3.001,1.243,1.179,0,2.184-.414,3.013-1.243.828-.829,1.243-1.834,1.243-3.013Z"/>
    <rect class="cls-2" x="61.116" y="14.991" width="7.583" height="19.679"/>
    <path class="cls-1" d="M66.699,32.67h-3.583v-15.679h3.583v15.679Z"/>
    <polygon class="cls-2" points="81.631 34.67 77.179 29.313 77.179 34.67 69.595 34.67 69.595 14.991 76.126 14.991 80.57 20.338 80.57 14.991 88.153 14.991 88.153 34.67 81.631 34.67"/>
    <path class="cls-1" d="M86.153,32.67h-3.583l-7.391-8.893v8.893h-3.583v-15.679h3.592l7.382,8.882v-8.882h3.583v15.679Z"/>
    <polygon class="cls-2" points="107.862 34.67 107.862 33.744 107.38 34.67 102.713 34.67 102.231 33.745 102.231 34.67 94.648 34.67 94.648 14.991 101.472 14.991 105.047 22.149 108.621 14.991 115.446 14.991 115.446 34.67 107.862 34.67"/>
    <path class="cls-1" d="M113.446,32.67h-3.584v-7.099l-3.695,7.099h-2.239l-3.695-7.099v7.099h-3.583v-15.679h3.587l4.812,9.633,4.811-9.633h3.588v15.679Z"/>
    <polygon class="cls-2" points="124.648 34.67 124.157 33.547 123.66 34.67 115.269 34.67 123.982 14.991 129.498 14.991 138.211 34.67 124.648 34.67"/>
    <path class="cls-1" d="M135.139,32.67h-9.183l-1.568-3.583h5.146l-2.795-6.312-4.382,9.895h-4.016l6.943-15.679h2.912l6.943,15.679Z"/>
    <polygon class="cls-2" points="138.707 34.67 138.707 22.574 133.22 22.574 133.22 14.991 152.835 14.991 149.518 22.574 146.29 22.574 146.29 34.67 138.707 34.67"/>
    <path class="cls-1" d="M149.778,16.991l-1.568,3.583h-3.92v12.095h-3.583v-12.095h-5.487v-3.583h14.558Z"/>
    <path class="cls-2" d="M160.317,34.67c-2.705,0-5.046-.97-6.958-2.883-1.911-1.909-2.881-4.251-2.881-6.957s.969-5.045,2.881-6.956c1.911-1.913,4.252-2.883,6.957-2.883h8.657l-3.317,7.583h-5.34c-.65,0-1.143.203-1.599.658-.453.454-.656.947-.656,1.598s.203,1.145.658,1.601c.454.454.946.656,1.597.656h7.599v7.583h-7.599Z"/>
    <path class="cls-1" d="M165.917,32.67h-5.599c-2.165,0-4.013-.766-5.543-2.297-1.531-1.529-2.296-3.377-2.296-5.543s.765-4.012,2.296-5.543c1.53-1.531,3.377-2.297,5.543-2.297h5.599l-1.568,3.583h-4.032c-1.179,0-2.184.416-3.012,1.243-.829.829-1.243,1.834-1.243,3.013s.414,2.184,1.243,3.013c.828.829,1.833,1.243,3.012,1.243h5.599v3.583Z"/>
    <polygon class="cls-2" points="180.788 34.67 180.788 28.622 177.397 28.622 177.397 34.67 169.813 34.67 169.813 14.991 177.397 14.991 177.397 21.039 180.788 21.039 180.788 14.991 188.371 14.991 188.371 34.67 180.788 34.67"/>
    <path class="cls-1" d="M175.397,32.67h-3.583v-15.679h3.583v15.679ZM186.371,32.67h-3.583v-6.048h-6.943l1.568-3.583h5.375v-6.048h3.583v15.679Z"/>
    <g>
      <path class="cls-2" d="M28.368,36.12v-6.633h2c.47,0,.79-.138,1.104-.474.403-.432.591-.909.591-1.499v-12.523h7.583v12.523c0,2.291-.882,4.307-2.621,5.991-1.793,1.735-4.033,2.614-6.658,2.614h-2Z"/>
      <path class="cls-1" d="M37.646,27.515c0,1.854-.703,3.461-2.105,4.819-1.404,1.358-3.129,2.037-5.174,2.037v-3.134c1.074,0,1.959-.373,2.654-1.117s1.042-1.613,1.042-2.605v-10.774h3.583v10.774Z"/>
    </g>
  </g>
</svg>