<?xml version="1.0" encoding="UTF-8"?>
<svg id="Layer_1" data-name="Layer 1" xmlns="http://www.w3.org/2000/svg" viewBox="0 0 222.028 51.111">
  <defs>
    <style>
      .cls-1 {
        fill: #fff;
      }

      .cls-2 {
        fill: #3f0000;
      }

      .cls-3 {
        fill: #f03127;
      }

      .cls-4 {
        fill: #ad0000;
      }
    </style>
  </defs>
  <g>
    <rect class="cls-2" x="85.458" y="-85.458" width="51.111" height="222.028" rx="14" ry="14" transform="translate(136.57 -85.458) rotate(90)"/>
    <rect class="cls-4" x="4.416" y="4" width="213.196" height="43.112" rx="10" ry="10"/>
    <rect class="cls-3" x="8.132" y="6.998" width="205.517" height="36.361" rx="10" ry="10"/>
    <rect class="cls-2" x="12.021" y="8.94" width="198.078" height="32.329" rx="10" ry="10"/>
  </g>
  <rect class="cls-4" x="14.307" y="10.929" width="193.624" height="28.06" rx="10" ry="10"/>
  <g>
    <g>
      <path class="cls-2" d="M22.747,36.425v-6.633h1.742c.41,0,.688-.138.962-.474.351-.432.515-.909.515-1.499v-12.523h6.605v12.523c0,2.291-.768,4.307-2.283,5.991-1.562,1.735-3.513,2.614-5.799,2.614h-1.742Z"/>
      <path class="cls-1" d="M30.829,27.819c0,1.854-.612,3.461-1.834,4.819-1.223,1.358-2.725,2.037-4.506,2.037v-3.134c.936,0,1.707-.373,2.312-1.117s.907-1.613.907-2.605v-10.774h3.121v10.774Z"/>
    </g>
    <path class="cls-2" d="M41.921,34.975c-2.356,0-4.395-.97-6.06-2.883-1.665-1.909-2.509-4.251-2.509-6.957s.844-5.045,2.51-6.956c1.665-1.913,3.704-2.883,6.06-2.883s4.395.97,6.061,2.883c1.665,1.912,2.51,4.252,2.51,6.956s-.845,5.047-2.511,6.958c-1.665,1.912-3.704,2.882-6.06,2.882ZM41.921,22.879c-.556,0-.984.205-1.388.664-.398.453-.576.944-.576,1.592s.178,1.14.577,1.594c.403.459.831.663,1.387.663.567,0,.996-.203,1.392-.657.396-.455.572-.949.572-1.6s-.177-1.144-.573-1.599c-.396-.454-.826-.657-1.392-.657Z"/>
    <path class="cls-1" d="M48.749,25.135c0,2.165-.667,4.014-2,5.543-1.334,1.531-2.943,2.297-4.829,2.297s-3.495-.766-4.828-2.297c-1.334-1.529-2-3.377-2-5.543s.666-4.012,2-5.543c1.333-1.531,2.942-2.297,4.828-2.297s3.495.766,4.829,2.297c1.333,1.531,2,3.377,2,5.543ZM45.628,25.135c0-1.179-.361-2.184-1.083-3.013-.722-.827-1.597-1.243-2.624-1.243-1.014,0-1.886.416-2.614,1.243-.729.829-1.092,1.834-1.092,3.013s.364,2.184,1.092,3.013c.728.829,1.599,1.243,2.614,1.243,1.027,0,1.902-.414,2.624-1.243.722-.829,1.083-1.834,1.083-3.013Z"/>
    <rect class="cls-2" x="51.271" y="15.296" width="6.605" height="19.679"/>
    <path class="cls-1" d="M56.134,32.975h-3.121v-15.679h3.121v15.679Z"/>
    <polygon class="cls-2" points="69.14 34.975 65.262 29.617 65.262 34.975 58.657 34.975 58.657 15.296 64.345 15.296 68.215 20.643 68.215 15.296 74.821 15.296 74.821 34.975 69.14 34.975"/>
    <path class="cls-1" d="M73.079,32.975h-3.121l-6.438-8.893v8.893h-3.121v-15.679h3.129l6.43,8.882v-8.882h3.121v15.679Z"/>
    <rect class="cls-2" x="75.601" y="15.296" width="6.605" height="19.679"/>
    <path class="cls-1" d="M80.464,32.975h-3.121v-15.679h3.121v15.679Z"/>
    <polygon class="cls-2" points="93.47 34.975 89.592 29.617 89.592 34.975 82.987 34.975 82.987 15.296 88.676 15.296 92.546 20.643 92.546 15.296 99.151 15.296 99.151 34.975 93.47 34.975"/>
    <path class="cls-1" d="M97.409,32.975h-3.121l-6.438-8.893v8.893h-3.121v-15.679h3.129l6.43,8.882v-8.882h3.121v15.679Z"/>
    <path class="cls-2" d="M108.501,34.975c-2.356,0-4.395-.97-6.06-2.884-1.665-1.908-2.509-4.249-2.509-6.956s.845-5.046,2.511-6.957c1.664-1.912,3.703-2.882,6.059-2.882h8.516l-2.305,6.048h1.383v13.631h-7.595ZM107.421,23.238c-.107.084-.211.184-.312.3-.396.454-.572.946-.572,1.598,0,.128.007.25.021.367l.863-2.265Z"/>
    <path class="cls-1" d="M114.354,32.975h-5.853c-1.886,0-3.495-.766-4.828-2.297-1.334-1.529-2-3.377-2-5.543s.666-4.012,2-5.543c1.333-1.531,2.942-2.297,4.828-2.297h5.853l-1.365,3.583h-4.487c-1.027,0-1.902.416-2.623,1.243-.722.829-1.083,1.834-1.083,3.013s.36,2.184,1.083,3.013c.722.829,1.596,1.243,2.623,1.243h2.731v-2.464h-3.316l1.365-3.583h5.072v9.631Z"/>
    <polygon class="cls-2" points="133.263 34.975 133.263 34.049 132.843 34.975 128.778 34.975 128.359 34.05 128.359 34.975 121.753 34.975 121.753 15.296 127.697 15.296 130.811 22.453 133.924 15.296 139.869 15.296 139.869 34.975 133.263 34.975"/>
    <path class="cls-1" d="M138.127,32.975h-3.122v-7.099l-3.219,7.099h-1.95l-3.219-7.099v7.099h-3.121v-15.679h3.124l4.191,9.633,4.19-9.633h3.125v15.679Z"/>
    <polygon class="cls-2" points="147.884 34.975 147.456 33.852 147.023 34.975 139.715 34.975 147.304 15.296 152.109 15.296 159.698 34.975 147.884 34.975"/>
    <path class="cls-1" d="M157.022,32.975h-7.998l-1.365-3.583h4.483l-2.435-6.312-3.817,9.895h-3.498l6.047-15.679h2.536l6.047,15.679Z"/>
    <polygon class="cls-2" points="160.13 34.975 160.13 22.879 155.35 22.879 155.35 15.296 172.436 15.296 169.546 22.879 166.735 22.879 166.735 34.975 160.13 34.975"/>
    <path class="cls-1" d="M169.773,17.296l-1.365,3.583h-3.414v12.095h-3.121v-12.095h-4.779v-3.583h12.68Z"/>
    <path class="cls-2" d="M178.953,34.975c-2.356,0-4.395-.97-6.06-2.883-1.665-1.909-2.509-4.251-2.509-6.957s.844-5.045,2.51-6.956c1.665-1.913,3.704-2.883,6.06-2.883h7.541l-2.89,7.583h-4.651c-.566,0-.996.203-1.393.658-.395.453-.571.946-.571,1.598s.177,1.145.573,1.601c.395.454.824.656,1.391.656h6.619v7.583h-6.619Z"/>
    <path class="cls-1" d="M183.83,32.975h-4.877c-1.886,0-3.495-.766-4.828-2.297-1.334-1.529-2-3.377-2-5.543s.666-4.012,2-5.543c1.333-1.531,2.942-2.297,4.828-2.297h4.877l-1.365,3.583h-3.512c-1.027,0-1.902.416-2.623,1.243-.722.829-1.083,1.834-1.083,3.013s.36,2.184,1.083,3.013c.722.829,1.596,1.243,2.623,1.243h4.877v3.583Z"/>
    <polygon class="cls-2" points="195.911 34.975 195.911 28.927 192.958 28.927 192.958 34.975 186.352 34.975 186.352 15.296 192.958 15.296 192.958 21.344 195.911 21.344 195.911 15.296 202.516 15.296 202.516 34.975 195.911 34.975"/>
    <path class="cls-1" d="M191.216,32.975h-3.121v-15.679h3.121v15.679ZM200.774,32.975h-3.121v-6.048h-6.048l1.366-3.583h4.682v-6.048h3.121v15.679Z"/>
  </g>
</svg>